<?xml version="1.0" encoding="utf-8"?>
<svg version="1.1" xmlns="http://www.w3.org/2000/svg" xmlns:xlink="http://www.w3.org/1999/xlink" x="0px" y="0px" viewBox="-1000 400 2000 600" style="enable-background:new 0 0 1200 1200;" xml:space="preserve">
<style type="text/css">
	.st1{fill:none;stroke:#69BF69;stroke-width:27.9186;stroke-linecap:round;stroke-linejoin:round;stroke-miterlimit:10;}
	.st2{fill:#69BF69;}
</style>
<g>
	<path class="st1" d="M845.2,470.91L297.51,772.43c0-69.92,4.37-80.11,53.9-129.64S600,571.41,600,473.82
		c0-80.36-43.79-77.43-59.25-73.89c-1.13,0.26-1.15,1.89-0.03,2.15c14.54,3.33,27.61,20.32,27.61,48.92
		c0,32.05-58.16,67.98-83.41,67.98c-25.25,0-58.26-23.31-58.26-92.25s58.26-125.15,58.26-175.77c0-12.62-4.98-32.77-34.11-32.77
		h-2.06c-31.96,0-33.56,48.03-1.63,49.49c0.52,0.02,1.02,0.04,1.5,0.04"/>
	<polyline class="st1" points="283.91,418.95 916.09,418.95 916.09,977.81"/>
	<path class="st1" d="M587.54,612.76v85.62c0,0,24.6-35.2,59.56-35.2c0,0,33.5,1.46,33.5,83.03s-78.66,147.12-126.73,147.12
		c-48.07,0-107.79-32.05-107.79-75.74c0-43.7,69.92-90.5,69.92-90.5"/>
	<ellipse transform="matrix(0.7071 -0.7071 0.7071 0.7071 -506.0182 693.6838)" class="st2" cx="584.34" cy="957.66" rx="26.95" ry="21"/>
	<circle class="st2" cx="548.05" cy="420.41" r="32.05"/>
</g>
</svg> 